<?xml version="1.0" encoding="iso-8859-1"?>
<!-- Generator: Adobe Illustrator 18.0.0, SVG Export Plug-In . SVG Version: 6.00 Build 0)  -->
<!DOCTYPE svg PUBLIC "-//W3C//DTD SVG 1.1//EN" "http://www.w3.org/Graphics/SVG/1.1/DTD/svg11.dtd">
<svg version="1.1" id="_x32_" xmlns="http://www.w3.org/2000/svg" xmlns:xlink="http://www.w3.org/1999/xlink" x="0px" y="0px"
	 viewBox="0 0 512 512" style="enable-background:new 0 0 512 512;" xml:space="preserve">
<g>
	<rect style="fill:#525252;" width="512" height="512"/>
	<polygon style="opacity:0.1;fill:#040000;" points="512,219.443 512,512 219.546,512 140.954,433.408 140.902,433.357 
		137.728,430.182 126.157,418.662 126.157,418.611 125.747,418.202 125.747,386.048 126.106,385.689 126.106,289.229 
		143.309,272.026 155.699,259.635 166.144,249.19 171.776,243.558 176.589,238.746 182.221,233.113 215.194,200.141 
		224.256,191.078 225.587,189.747 265.267,150.067 295.271,120.064 297.063,118.272 336.742,78.592 371.149,78.592 374.426,81.869 
		385.843,93.286 386.253,93.696 	"/>
	<g>
		<path style="fill:#F4F4F5;" d="M386.253,93.696v324.301c0,8.089-6.297,14.745-14.233,15.309c-0.512,0.051-1.075,0.102-1.587,0.102
			H141.21c-0.103,0-0.205,0-0.307-0.051c-0.307,0-0.614,0-0.922-0.051c-7.577-0.768-13.517-6.963-13.824-14.643v-0.051
			c-0.051-0.205-0.051-0.41-0.051-0.614V94.003c0-8.499,6.963-15.411,15.411-15.411h229.632
			C379.392,78.797,386.099,85.453,386.253,93.696z"/>
		<path style="fill:#FFFFFF;" d="M386.253,93.696v3.123c0-1.229-0.153-2.406-0.409-3.533c-1.331-5.632-5.786-10.086-11.418-11.418
			c-1.178-0.307-2.406-0.461-3.635-0.461H141.517c-8.448,0-15.411,6.912-15.411,15.411v-2.816c0-8.499,6.963-15.411,15.411-15.411
			h229.632C379.392,78.797,386.099,85.453,386.253,93.696z"/>
		<path style="opacity:0.1;fill:#040000;" d="M385.894,415.181v2.816c0,7.987-6.144,14.541-13.875,15.309
			c-0.512,0.051-1.075,0.102-1.587,0.102H140.954c-0.307,0-0.666,0-0.973-0.102c-7.885-0.563-14.131-7.117-14.234-15.104v-3.021
			c0,1.178,0.154,2.304,0.41,3.431v0.051c1.331,5.735,5.837,10.24,11.571,11.52c1.126,0.256,2.304,0.41,3.482,0.41h229.222
			C378.931,430.592,385.894,423.68,385.894,415.181z"/>
		<g>
			<path style="fill:#C2C1C1;" d="M279.643,104.683H232.71c-1.941,0-3.53-1.588-3.53-3.53l0,0c0-1.941,1.588-3.53,3.53-3.53h46.933
				c1.941,0,3.53,1.588,3.53,3.53l0,0C283.173,103.095,281.585,104.683,279.643,104.683z"/>
			<path style="fill:#8B8B8B;" d="M282.923,99.758c-0.588-0.479-1.334-0.766-2.148-0.766h-47.142c-1.881,0-3.427,1.539-3.427,3.427
				v0.205c0,0.458,0.096,0.896,0.267,1.299c-0.787-0.622-1.293-1.594-1.293-2.668v-0.205c0-1.888,1.546-3.427,3.427-3.427h47.142
				C281.178,97.624,282.41,98.506,282.923,99.758z"/>
		</g>
		<g>
			<circle style="fill:#C2C1C1;" cx="256.177" cy="400.255" r="17.098"/>
			<path style="fill:#8B8B8B;" d="M269.051,389.631c-2.845-2.227-6.423-3.554-10.31-3.554c-9.243,0-16.742,7.499-16.742,16.75
				c0,3.879,1.318,7.449,3.537,10.285c-3.929-3.062-6.456-7.841-6.456-13.205c0-9.251,7.499-16.75,16.75-16.75
				C261.201,383.157,265.989,385.693,269.051,389.631z"/>
		</g>
		<rect x="143.316" y="118.254" style="fill:#C2C1C1;" width="225.721" height="253.082"/>
		<rect x="143.316" y="120.078" style="fill:#3D3D3D;" width="225.721" height="29.982"/>
		<g>
			<rect x="154.51" y="126.69" style="fill:#F2F2F2;" width="5.015" height="18.126"/>
			<rect x="162.508" y="131.82" style="fill:#F2F2F2;" width="5.015" height="12.996"/>
			<rect x="170.506" y="136.836" style="fill:#F2F2F2;" width="5.015" height="7.98"/>
		</g>
		<g style="opacity:0.5;">
			<rect x="154.715" y="189.752" style="fill:#FAFAFB;" width="60.492" height="29.546"/>
			<rect x="224.281" y="189.752" style="fill:#FAFAFB;" width="60.492" height="29.546"/>
			<rect x="293.847" y="189.752" style="fill:#FAFAFB;" width="60.492" height="29.546"/>
			<rect x="154.715" y="224.051" style="fill:#FAFAFB;" width="34.567" height="5.617"/>
			<rect x="169.539" y="173.662" style="fill:#FAFAFB;" width="34.567" height="2.809"/>
			<rect x="154.715" y="264.523" style="fill:#FAFAFB;" width="34.567" height="5.617"/>
			<rect x="154.715" y="233.125" style="fill:#FAFAFB;" width="60.924" height="5.617"/>
			<rect x="154.715" y="243.567" style="fill:#FAFAFB;" width="60.924" height="5.617"/>
			<rect x="154.715" y="254.009" style="fill:#FAFAFB;" width="60.924" height="5.617"/>
			<rect x="225.361" y="224.051" style="fill:#FAFAFB;" width="34.567" height="5.617"/>
			<rect x="225.361" y="264.523" style="fill:#FAFAFB;" width="34.567" height="5.617"/>
			<rect x="225.361" y="233.125" style="fill:#FAFAFB;" width="60.924" height="5.617"/>
			<rect x="225.361" y="243.567" style="fill:#FAFAFB;" width="60.924" height="5.617"/>
			<rect x="225.361" y="254.009" style="fill:#FAFAFB;" width="60.924" height="5.617"/>
			<rect x="293.799" y="224.051" style="fill:#FAFAFB;" width="34.567" height="5.617"/>
			<rect x="293.799" y="264.523" style="fill:#FAFAFB;" width="34.567" height="5.617"/>
			<rect x="293.799" y="233.125" style="fill:#FAFAFB;" width="60.924" height="5.617"/>
			<rect x="293.799" y="243.567" style="fill:#FAFAFB;" width="60.924" height="5.617"/>
			<rect x="293.799" y="254.009" style="fill:#FAFAFB;" width="60.924" height="5.617"/>
			<path style="fill:#FAFAFB;" d="M162.801,172.098L162.801,172.098c1.639,1.639,1.639,4.297,0,5.936l0,0
				c-1.639,1.639-4.297,1.639-5.936,0l0,0c-1.639-1.639-1.639-4.297,0-5.936l0,0C158.504,170.459,161.162,170.459,162.801,172.098z"
				/>
			
				<rect x="338.422" y="173.084" transform="matrix(-0.7071 -0.7071 0.7071 -0.7071 457.3149 539.5584)" style="fill:#FAFAFB;" width="3.964" height="3.964"/>
			
				<rect x="348.035" y="173.084" transform="matrix(-0.7071 -0.7071 0.7071 -0.7071 473.7269 546.3565)" style="fill:#FAFAFB;" width="3.964" height="3.964"/>
			
				<rect x="329.888" y="173.084" transform="matrix(-0.7071 -0.7071 0.7071 -0.7071 442.7528 533.5224)" style="fill:#FAFAFB;" width="3.964" height="3.964"/>
		</g>
		<path style="opacity:0.04;fill:#040000;" d="M385.894,125.952v292.045c0,7.987-6.144,14.541-13.875,15.309
			c-0.512,0.051-1.075,0.102-1.587,0.102H140.954c-0.307,0-0.666,0-0.973-0.102c-7.885-0.563-14.131-7.117-14.234-15.104v-32.154
			l0.358-0.358l17.203-17.203l103.987-103.987l4.864-4.864l5.683-5.632l15.258-15.257l5.632-5.632l15.104-15.104l28.263-28.262
			l46.95-46.95L385.894,125.952z"/>
		<rect x="143.316" y="368.77" style="opacity:0.2;fill:#FAFAFB;" width="225.721" height="2.565"/>
	</g>
</g>
</svg>
